<svg height="1em" viewBox="0 0 10.4 10.4" xmlns="http://www.w3.org/2000/svg" xmlns:xlink="http://www.w3.org/1999/xlink" xml:space="preserve">
	<g transform="translate(-203 -144)">
		<path d="M212.8,145.8l0.7-1.7c0-0.1,0-0.1-0.1-0.2c0,0-0.1,0-0.1,0l-1.7,0.7c-0.1,0-0.1,0.1-0.2,0.1l-5.2,5.2l-0.7-0.2
			c-0.1,0-0.1-0.1-0.2-0.2c-0.1-0.3-0.4-0.6-0.7-0.5c-0.1,0-0.2,0-0.2,0.1c-0.3,0.2-0.4,0.6-0.2,0.9c0.1,0.2,0.3,0.3,0.5,0.3
			c0.1,0,0.1,0,0.1,0.1c0.4,0.4,1.9,1.9,2.2,2.2c0,0,0.1,0.1,0.1,0.1c0,0.3,0.3,0.6,0.7,0.6c0.3,0,0.6-0.3,0.6-0.7
			c0-0.1-0.1-0.3-0.2-0.4c-0.1-0.1-0.2-0.2-0.3-0.2c-0.1,0-0.2-0.1-0.2-0.2l-0.2-0.7l5.2-5.2C212.7,146,212.7,145.9,212.8,145.8z"/>
		<path d="M205.2,151.5l-1.1,1.1c0,0-0.1,0.1-0.2,0.1c-0.5,0-0.9,0.3-0.9,0.8c0,0.5,0.3,0.9,0.8,0.9c0.5,0,0.9-0.3,0.9-0.8
			c0,0,0-0.1,0-0.1c0-0.1,0-0.1,0.1-0.2l1.1-1.1L205.2,151.5z"/>
	</g>
</svg>
