<svg xmlns="http://www.w3.org/2000/svg" xmlns:xlink="http://www.w3.org/1999/xlink"
	 viewBox="0 0 26.7 26.5" style="enable-background:new 0 0 26.7 26.5;" xml:space="preserve">
	<g>
		<path d="M0,4.9l0.3-3.8c0-0.7,0.6-1.2,1.3-1.1c0.3,0,0.6,0.2,0.8,0.4l8.5,9.6H4.8C2.2,10,0,7.9,0,5.2V4.9L0,4.9z"/>
		<path d="M25.1,21.2L25,21.3l-1.9,4.8c-0.1,0.3-0.4,0.4-0.6,0.3c-0.1-0.1-0.2-0.2-0.3-0.3l-1.3-3.8c-0.1-0.3-0.4-0.4-0.6-0.3
			c-0.1,0-0.2,0.1-0.3,0.2l-1,1.4c-0.2,0.2-0.5,0.3-0.7,0.1l-0.1-0.1l-2-2.6c-0.2-0.2-0.5-0.3-0.7-0.1L15.4,21l-1.8,2.7
			c-0.2,0.2-0.5,0.3-0.7,0.1l-0.1-0.1l-1.7-2.4c-0.2-0.2-0.5-0.3-0.7-0.1l-0.1,0.1l-1.6,2.4C8.5,23.9,8.2,24,8,23.8l-0.1-0.1
			l-1.2-1.6C6.5,21.9,6.2,21.8,6,22c-0.1,0.1-0.1,0.1-0.2,0.2l-1.3,3.9c-0.1,0.3-0.4,0.4-0.6,0.3c-0.1,0-0.3-0.2-0.3-0.3l-1.9-4.8
			c0,0-0.1-0.1-0.1-0.2c-0.5-1-0.2-2.2,0.8-2.7c2.3-1.3,6.4-2,11-2s8.7,0.8,11,2C25.2,19,25.6,20.2,25.1,21.2z"/>
		<path d="M21.9,10h-6.1l8.5-9.6c0.4-0.5,1.2-0.5,1.7-0.1c0.2,0.2,0.4,0.5,0.4,0.8l0.3,3.8c0.2,2.6-1.8,4.9-4.4,5.1H21.9z"/>
	</g>
</svg>
